PathFileType	4	(X/Y/Z)	1H_nor_med_right.trc
DataRate	CameraRate	NumFrames	NumMarkers	Units	OrigDataRate	OrigDataStartFrame	OrigNumFrames
250.00	250.00	18	18	mm	250.00	8257	11009
Frame#	Time	c7	r_should	l_should	clavicle	r_upa	r_elb_l	r_elb_m	r_low	r_wri_l	r_wri_m	r_met	l_upa	l_elb_l	l_elb_m	l_low	l_wri_l	l_wri_m	l_met
	X1	Y1	Z1	X2	Y2	Z2	X3	Y3	Z3	X4	Y4	Z4	X5	Y5	Z5	X6	Y6	Z6	X7	Y7	Z7	X8	Y8	Z8	X9	Y9	Z9	X10	Y10	Z10	X11	Y11	Z11	X12	Y12	Z12	X13	Y13	Z13	X14	Y14	Z14	X15	Y15	Z15	X16	Y16	Z16	X17	Y17	Z17	X18	Y18	Z18
8257	33.02400	1236.60986	1425.37122	133.11008	1288.76331	1373.59082	281.34637	1239.17432	1358.07080	-42.04566	1341.84265	1284.58972	111.90996	1320.10242	1177.63904	364.83066	1327.70752	1101.24023	390.94257	1250.15186	1060.39795	365.50748	1381.26880	1002.82886	337.80734	1427.02991	920.42859	268.74237	1384.15332	876.54675	313.87503	1481.65808	864.69995	276.01837	1220.06323	1146.04993	-99.67327	1222.09265	1038.42847	-118.01985	1185.28992	1027.19946	-23.76330	1226.51379	915.42291	-112.40090	1245.60120	796.54279	-87.86030	1167.95520	794.30341	-93.31976	1228.04858	721.11652	-132.64430
8258	33.02800	1236.64978	1425.36658	133.14680	1288.91467	1373.49634	281.39172	1239.14282	1358.10303	-42.02702	1341.86292	1284.58472	111.87501	1320.28247	1177.40320	364.62854	1327.97839	1100.80847	390.69324	1250.33276	1060.03979	365.17532	1381.33911	1001.83234	337.99600	1427.07092	918.96606	269.44241	1383.78943	875.29956	314.71460	1481.35046	862.92523	277.13351	1220.00317	1146.08411	-99.66383	1222.02979	1038.46460	-118.01212	1185.24329	1027.23816	-23.74413	1226.43311	915.45801	-112.39252	1245.51733	796.58282	-87.85799	1167.87048	794.34570	-93.29109	1227.95190	721.15405	-132.63712
8259	33.03200	1236.68896	1425.36401	133.18658	1289.07812	1373.40820	281.43985	1239.10779	1358.14258	-42.00443	1341.87952	1284.58325	111.84048	1320.45178	1177.16455	364.42346	1328.24756	1100.37659	390.42636	1250.50403	1059.69006	364.84973	1381.39062	1000.80743	338.15359	1427.52185	917.99402	270.14371	1383.40967	874.06531	315.55075	1481.00842	861.14380	278.23834	1219.94055	1146.12231	-99.65681	1221.96570	1038.50024	-118.00258	1185.20703	1027.27368	-23.72947	1226.36194	915.49658	-112.38528	1245.43958	796.61847	-87.85382	1167.78259	794.39087	-93.26722	1227.85522	721.19751	-132.63968
8260	33.03600	1236.72961	1425.36646	133.22287	1289.24573	1373.32178	281.49103	1239.07581	1358.18433	-41.98243	1341.89270	1284.57837	111.80400	1320.62341	1176.93079	364.21436	1328.51807	1099.93250	390.13525	1250.67896	1059.34314	364.52271	1381.43909	999.81036	338.31711	1427.31982	916.25836	270.90051	1383.04065	872.83929	316.43604	1480.66748	859.38226	279.35516	1219.87549	1146.16821	-99.65339	1221.89868	1038.53943	-118.00369	1185.15869	1027.31567	-23.71870	1226.29163	915.54199	-112.38760	1245.36658	796.64648	-87.85463	1167.69824	794.43689	-93.24452	1227.75745	721.23883	-132.63689
8261	33.04000	1236.77417	1425.36853	133.26210	1289.41833	1373.23425	281.53659	1239.04321	1358.22168	-41.95844	1341.90588	1284.57239	111.76464	1320.80200	1176.69910	363.99371	1328.78552	1099.49536	389.84299	1250.86169	1059.00134	364.19278	1381.48706	998.80255	338.49780	1426.67004	913.97870	271.67282	1382.66187	871.61597	317.28455	1480.32886	857.63751	280.48801	1219.81824	1146.20667	-99.64548	1221.82837	1038.57971	-117.99876	1185.10352	1027.35840	-23.70406	1226.21887	915.58685	-112.38336	1245.29041	796.67493	-87.85748	1167.61731	794.47974	-93.22644	1227.66016	721.27942	-132.63588
8262	33.04400	1236.81799	1425.37097	133.30014	1289.58594	1373.14868	281.57925	1239.00879	1358.25562	-41.93792	1341.91833	1284.56250	111.72678	1321.36133	1176.06409	364.08920	1329.05286	1099.06812	389.55682	1251.34998	1058.44617	363.73865	1381.51721	997.78247	338.66434	1426.39917	912.20703	272.40298	1382.25598	870.48773	318.08646	1479.23926	855.17108	281.22595	1219.75977	1146.24304	-99.63541	1221.76270	1038.61279	-117.98203	1185.06909	1027.39209	-23.69074	1226.14185	915.62323	-112.38706	1245.21191	796.70337	-87.85263	1167.53564	794.52618	-93.21851	1227.56750	721.31586	-132.63640
8263	33.04800	1236.86609	1425.37012	133.33864	1289.75537	1373.06628	281.61865	1238.97510	1358.28918	-41.91439	1341.93640	1284.54578	111.70057	1322.38062	1174.92334	364.57306	1329.32495	1098.64417	389.27289	1252.21912	1057.61877	363.14999	1381.54541	996.78571	338.80914	1426.19629	910.55499	273.09937	1381.85767	869.44708	318.89551	1477.31567	851.90466	281.56339	1219.70239	1146.27478	-99.62367	1221.70154	1038.64563	-117.97055	1185.02283	1027.42859	-23.67850	1226.06921	915.65887	-112.39907	1245.13696	796.73639	-87.85410	1167.46094	794.57080	-93.21144	1227.47473	721.34686	-132.63570
8264	33.05200	1236.91113	1425.36365	133.37613	1289.92285	1372.98267	281.65729	1238.94080	1358.32275	-41.88928	1341.95239	1284.53015	111.66512	1322.40369	1174.85840	364.20233	1329.59753	1098.19861	388.97394	1252.57349	1057.16174	362.73679	1381.57410	995.77094	338.95486	1426.00989	908.93634	273.81879	1381.44031	868.30457	319.74957	1476.84009	850.07489	282.66464	1219.64978	1146.29980	-99.61692	1221.63940	1038.66931	-117.96412	1184.98132	1027.46130	-23.66707	1226.00403	915.69269	-112.40195	1245.06543	796.76538	-87.86453	1167.38708	794.59973	-93.20552	1227.38574	721.37445	-132.63994
8265	33.05600	1236.96521	1425.35779	133.41414	1290.09619	1372.89331	281.69568	1238.90894	1358.35376	-41.86301	1341.96973	1284.51282	111.62959	1321.80664	1175.46106	363.30286	1329.85571	1097.75684	388.67822	1252.48999	1057.02795	362.46802	1381.59509	994.78656	339.10495	1425.85571	907.34076	274.55307	1381.00940	867.11029	320.56125	1476.71545	848.62549	283.97321	1219.59705	1146.33386	-99.61213	1221.57910	1038.70190	-117.97058	1184.94873	1027.48914	-23.65861	1225.93762	915.73096	-112.41217	1244.99524	796.79297	-87.86766	1167.31580	794.63574	-93.20203	1227.29602	721.40253	-132.64516
8266	33.06000	1237.02002	1425.35315	133.45062	1290.27771	1372.80200	281.72940	1238.87488	1358.38574	-41.83458	1341.98608	1284.49585	111.58891	1321.79260	1175.43726	362.89313	1330.11816	1097.33521	388.39285	1251.98035	1057.19165	362.36029	1381.60400	993.80164	339.28018	1425.68188	905.76398	275.27625	1380.54431	865.93848	321.38754	1476.60828	847.22900	285.30313	1219.54724	1146.36743	-99.60537	1221.51733	1038.73462	-117.97919	1184.92065	1027.52222	-23.64743	1225.87109	915.77081	-112.41265	1244.93457	796.81024	-87.85976	1167.24390	794.67548	-93.19183	1227.21094	721.42914	-132.64705
8267	33.06400	1237.07166	1425.35095	133.49263	1290.46362	1372.71191	281.76675	1238.83972	1358.41699	-41.80618	1341.99951	1284.48438	111.54445	1321.92041	1175.24487	362.61798	1330.37976	1096.91931	388.09805	1252.26477	1056.75146	361.98608	1381.59204	992.80847	339.45132	1425.50659	904.22235	276.00778	1380.10791	864.80066	322.27731	1476.44373	845.80865	286.58698	1219.49817	1146.39722	-99.59654	1221.45520	1038.76367	-117.96941	1184.88647	1027.55713	-23.62467	1225.80627	915.80927	-112.41617	1244.87219	796.82739	-87.85847	1167.17285	794.72064	-93.18162	1227.12585	721.45911	-132.64986
8268	33.06800	1237.12598	1425.34412	133.54430	1290.65576	1372.61414	281.80707	1238.80859	1358.44861	-41.77565	1342.01453	1284.46863	111.51070	1322.46106	1174.61499	362.70416	1330.62622	1096.49524	387.80756	1253.04468	1055.94006	361.45520	1381.58179	991.84222	339.62680	1425.31763	902.66571	276.75757	1379.65723	863.67078	323.14758	1476.20190	844.34473	287.83917	1219.44592	1146.42859	-99.58810	1221.39587	1038.80054	-117.95654	1184.84949	1027.59680	-23.59873	1225.73889	915.84613	-112.41997	1244.80969	796.85101	-87.86513	1167.10999	794.76196	-93.16003	1227.04504	721.49280	-132.65904
8269	33.07200	1237.18225	1425.33728	133.59204	1290.84729	1372.51392	281.84891	1238.77759	1358.48499	-41.74593	1342.02771	1284.45227	111.47617	1323.47546	1173.47925	363.18961	1330.87378	1096.06372	387.52359	1253.36377	1055.47815	361.06174	1381.57812	990.86951	339.81305	1425.08411	901.12695	277.47083	1379.17969	862.54041	323.97543	1475.90186	842.85785	289.08536	1219.39819	1146.46936	-99.58212	1221.33618	1038.83948	-117.94962	1184.82727	1027.62573	-23.58570	1225.67114	915.87579	-112.42346	1244.75183	796.87573	-87.87092	1167.04834	794.78259	-93.13636	1226.96826	721.52795	-132.67188
8270	33.07600	1237.24146	1425.32727	133.64091	1291.04529	1372.41614	281.89218	1238.74377	1358.51868	-41.71629	1342.03870	1284.44128	111.44238	1323.86926	1173.00195	363.13574	1331.11890	1095.62219	387.23209	1253.56750	1055.12500	360.71542	1381.54980	989.90778	339.99582	1424.82837	899.58569	278.20261	1378.68787	861.44934	324.84628	1475.55762	841.36700	290.29077	1219.34998	1146.50916	-99.56863	1221.27673	1038.87341	-117.94044	1184.79761	1027.65833	-23.56380	1225.61548	915.90631	-112.42181	1244.70178	796.90564	-87.87101	1166.99097	794.80652	-93.12364	1226.89343	721.56213	-132.68245
8271	33.08000	1237.30164	1425.32043	133.69537	1291.25659	1372.31189	281.94070	1238.71594	1358.54944	-41.68571	1342.05493	1284.43042	111.41593	1323.74048	1173.09778	362.64056	1331.36890	1095.18665	386.95233	1253.74414	1054.79382	360.37350	1381.51245	988.97504	340.19363	1424.60474	898.06946	278.94388	1378.20093	860.35999	325.74899	1475.17529	839.86169	291.50073	1219.29980	1146.55042	-99.55356	1221.22278	1038.90747	-117.92899	1184.76770	1027.68994	-23.53128	1225.55945	915.94781	-112.42325	1244.64160	796.93347	-87.88247	1166.93567	794.83667	-93.10615	1226.82324	721.59357	-132.68459
8272	33.08400	1237.36096	1425.31042	133.75226	1291.47058	1372.21753	281.99323	1238.68616	1358.58508	-41.64906	1342.07080	1284.42078	111.38834	1323.11267	1173.74548	361.73364	1331.62317	1094.76086	386.68497	1253.91223	1054.46167	360.04160	1381.48474	988.02991	340.41022	1424.38428	896.57007	279.73386	1377.69629	859.25256	326.59863	1474.77185	838.37738	292.72421	1219.25574	1146.58582	-99.53304	1221.16382	1038.94470	-117.92077	1184.72815	1027.73206	-23.49429	1225.49390	915.99451	-112.42563	1244.58008	796.97058	-87.88773	1166.87952	794.87659	-93.08022	1226.75269	721.62549	-132.68948
8273	33.08800	1237.42395	1425.29968	133.81505	1291.68872	1372.12256	282.04590	1238.65405	1358.61890	-41.61166	1342.08777	1284.40210	111.35839	1323.09644	1173.72217	361.35352	1331.87891	1094.33777	386.43326	1254.06152	1054.13513	359.72839	1381.45020	987.09955	340.60818	1424.14087	895.09259	280.52484	1377.16541	858.16443	327.40909	1474.34070	836.87787	293.91803	1219.21375	1146.61523	-99.50667	1221.10730	1038.98450	-117.90604	1184.69592	1027.76611	-23.45907	1225.43665	916.03290	-112.41903	1244.52136	796.99957	-87.88502	1166.82239	794.90930	-93.06097	1226.68250	721.65594	-132.69414
8274	33.09200	1237.48779	1425.28943	133.87025	1291.90540	1372.02527	282.09525	1238.62866	1358.64551	-41.57588	1342.10876	1284.37952	111.32781	1323.23389	1173.53320	361.10159	1332.11316	1093.91333	386.17081	1254.20728	1053.80847	359.40829	1381.41565	986.18988	340.81137	1423.87170	893.60327	281.30679	1376.59607	856.94318	328.26672	1473.96057	835.38031	295.49518	1219.17041	1146.64612	-99.48173	1221.05273	1039.01868	-117.88966	1184.66724	1027.78845	-23.42744	1225.37903	916.06677	-112.40849	1244.46777	797.02234	-87.89052	1166.77295	794.93970	-93.04309	1226.61047	721.67798	-132.69392
